<?xml version="1.0" encoding="utf-8"?>
<!-- Generator: Adobe Illustrator 22.0.1, SVG Export Plug-In . SVG Version: 6.00 Build 0)  -->
<svg version="1.1" id="Слой_1" xmlns="http://www.w3.org/2000/svg" xmlns:xlink="http://www.w3.org/1999/xlink" x="0px" y="0px"
	 viewBox="0 0 1920 1080" style="enable-background:new 0 0 1920 1080;" xml:space="preserve">
<style type="text/css">
	.st0{fill:#FFFFFF;}
	.st1{fill:#4685f2;}
</style>
<g transform="translate(-550, -457)">
<polygon class="st1" points="1234.9,456.6 1143.6,588 1114.6,588 1086.9,456.6 1123.4,456.6 1140.7,539 1197.8,456.6 "/>
<polygon class="st1" points="1070.6,456.6 1036.1,587.8 1000.5,588 1035.8,456.4 "/>
<polygon class="st1" points="890.5,456.5 855.2,588 890.7,587.9 904.4,536.8 953.4,536.8 939.5,587.9 974.3,588 1009.5,456.7
	975,456.6 960.8,508.8 912,508.7 925.9,456.6 "/>
<polygon class="st1" points="549.5,587.6 640.8,456.3 669.8,456.3 697.5,587.7 661,587.7 643.7,505.2 586.6,587.7 "/>
<g>
	<polygon class="st1" points="1254.8,456.9 1370.8,456.4 1363.1,484.7 1246.9,485.4 	"/>
	<polygon class="st1" points="1240.8,508.3 1357.5,508.3 1349.7,535.6 1233.7,535.8 	"/>
	<polygon class="st1" points="1228,557.6 1343.8,557.6 1336.1,587.2 1219.3,587.5 	"/>
</g>
<path class="st1" d="M853.5,487.9c-5.5-16.3-22.3-30.6-40.3-30.9c-24.7-0.4-64.8,0-64.8,0l-34.7,130.9c0,0,40.4,0.2,69.4,0.2
	s54.1-21.6,66.5-50.9C854.5,525.4,859.3,505.4,853.5,487.9z M822.5,524.6c-2.1,5.7-13.5,31.4-40.1,32.3c-4.3,0.1-27.1,0.2-27.1,0.2
	l18.5-70c0,0,17.6-0.9,30.4-0.2C826,488,829,507,822.5,524.6z"/>
	</g>
</svg>
